<svg width="66" height="46" viewBox="0 0 66 46" fill="none" xmlns="http://www.w3.org/2000/svg">
<g filter="url(#filter0_d_4_40)">
<path d="M4 25.7857C4 32.529 9.84531 38 17.05 38H50.4C56.8072 38 62 33.1397 62 27.1429C62 21.8924 58.0125 17.5071 52.72 16.5063C53.0916 15.5987 53.3 14.6062 53.3 13.5714C53.3 9.07589 49.4031 5.42857 44.6 5.42857C42.8147 5.42857 41.1472 5.9375 39.7697 6.80268C37.2594 2.73125 32.5741 0 27.2 0C19.1888 0 12.7 6.07321 12.7 13.5714C12.7 13.8004 12.7091 14.0295 12.7181 14.2585C7.64313 15.9295 4 20.4589 4 25.7857Z" fill="url(#paint0_linear_4_40)"/>
</g>
<defs>
<filter id="filter0_d_4_40" x="0" y="0" width="66" height="46" filterUnits="userSpaceOnUse" color-interpolation-filters="sRGB">
<feFlood flood-opacity="0" result="BackgroundImageFix"/>
<feColorMatrix in="SourceAlpha" type="matrix" values="0 0 0 0 0 0 0 0 0 0 0 0 0 0 0 0 0 0 127 0" result="hardAlpha"/>
<feOffset dy="4"/>
<feGaussianBlur stdDeviation="2"/>
<feComposite in2="hardAlpha" operator="out"/>
<feColorMatrix type="matrix" values="0 0 0 0 0 0 0 0 0 0 0 0 0 0 0 0 0 0 0.25 0"/>
<feBlend mode="normal" in2="BackgroundImageFix" result="effect1_dropShadow_4_40"/>
<feBlend mode="normal" in="SourceGraphic" in2="effect1_dropShadow_4_40" result="shape"/>
</filter>
<linearGradient id="paint0_linear_4_40" x1="33" y1="0" x2="33" y2="38" gradientUnits="userSpaceOnUse">
<stop stop-color="white"/>
<stop offset="1" stop-color="#95B8DE"/>
</linearGradient>
</defs>
</svg>
