<svg width="341" height="113" viewBox="0 0 341 113" fill="none" xmlns="http://www.w3.org/2000/svg">
<path fill-rule="evenodd" clip-rule="evenodd" d="M0 33.6401L9.3775 29.2312C19.0392 24.8223 37.7942 16.0045 56.8333 9.39121C75.8725 2.77788 94.6275 -1.631 113.667 0.573441C132.706 2.77788 151.461 11.5957 170.5 29.2312C189.539 46.8667 208.294 73.32 227.333 88.7511C246.372 104.182 265.127 108.591 284.167 95.3645C303.206 82.1378 321.961 51.2756 331.622 35.8445L341 20.4134V113H331.622C321.961 113 303.206 113 284.167 113C265.127 113 246.372 113 227.333 113C208.294 113 189.539 113 170.5 113C151.461 113 132.706 113 113.667 113C94.6275 113 75.8725 113 56.8333 113C37.7942 113 19.0392 113 9.3775 113H0V33.6401Z" fill="#248CFB" fill-opacity="0.5"/>
</svg>
