<svg width="341" height="151" viewBox="0 0 341 151" fill="none" xmlns="http://www.w3.org/2000/svg">
<g clip-path="url(#clip0_1_17)">
<path fill-rule="evenodd" clip-rule="evenodd" d="M-5 23.1387L17.2846 45.2714C39.5691 68.4101 83.6077 113.681 128.177 117.706C172.215 121.73 216.785 83.5005 260.823 64.386C305.392 45.2714 349.431 45.2714 371.715 45.2714H394V0H371.715C349.431 0 305.392 0 260.823 0C216.785 0 172.215 0 128.177 0C83.6077 0 39.5691 0 17.2846 0H-5V23.1387Z" fill="#C7E2FF"/>
<path fill-rule="evenodd" clip-rule="evenodd" d="M-37 -24L-17.7083 -12.1875C1.58333 -0.375 40.1667 23.25 78.75 39C117.333 54.75 155.917 62.625 194.5 46.875C233.083 31.125 271.667 -8.25 310.25 -0.375C348.833 7.5 387.417 62.625 406.708 90.1875L426 117.75V165H406.708C387.417 165 348.833 165 310.25 165C271.667 165 233.083 165 194.5 165C155.917 165 117.333 165 78.75 165C40.1667 165 1.58333 165 -17.7083 165H-37V-24Z" fill="#79B9FE"/>
<path fill-rule="evenodd" clip-rule="evenodd" d="M0 116.125L14.2083 118.396C28.4167 120.667 56.8333 125.208 85.25 118.396C113.667 111.583 142.083 93.4167 170.5 79.7917C198.917 66.1667 227.333 57.0833 255.75 52.5417C284.167 48 312.583 48 326.792 48H341V157H326.792C312.583 157 284.167 157 255.75 157C227.333 157 198.917 157 170.5 157C142.083 157 113.667 157 85.25 157C56.8333 157 28.4167 157 14.2083 157H0V116.125Z" fill="#49A2FE"/>
<path fill-rule="evenodd" clip-rule="evenodd" d="M0 71.6401L9.3775 67.2312C19.0392 62.8223 37.7942 54.0045 56.8333 47.3912C75.8725 40.7779 94.6275 36.369 113.667 38.5734C132.706 40.7779 151.461 49.5957 170.5 67.2312C189.539 84.8667 208.294 111.32 227.333 126.751C246.372 142.182 265.128 146.591 284.167 133.364C303.206 120.138 321.961 89.2756 331.622 73.8445L341 58.4134V151H331.622C321.961 151 303.206 151 284.167 151C265.128 151 246.372 151 227.333 151C208.294 151 189.539 151 170.5 151C151.461 151 132.706 151 113.667 151C94.6275 151 75.8725 151 56.8333 151C37.7942 151 19.0392 151 9.3775 151H0V71.6401Z" fill="#248CFB" fill-opacity="0.5"/>
</g>
<defs>
<clipPath id="clip0_1_17">
</clipPath>
</defs>
</svg>
